<?xml version="1.0" encoding="utf-8" standalone="no"?>
<!DOCTYPE svg PUBLIC "-//W3C//DTD SVG 1.1//EN" "http://www.w3.org/Graphics/SVG/1.1/DTD/svg11.dtd">
<svg version="1.1" width="576pt" height="576pt" viewBox="0 0 576 576" xmlns="http://www.w3.org/2000/svg">
  <defs />
  <g id="Black">
    <path d="M77.152,537.18396 C64.37334,537.18396 51.59467,537.18396 38.816,537.18396 C26.037334,537.18396 13.258667,537.18396 0.48,537.18396 C0.48,549.9627 0.48,562.74133 0.48,575.52 C13.258667,575.52 26.037334,575.52 38.816,575.52 C51.59467,575.52 64.37334,575.52 77.152,575.52 C89.93067,575.52 102.709335,575.52 115.48801,575.52 C128.26666,575.52 141.04533,575.52 153.824,575.52 C166.60268,575.52 179.38133,575.52 192.16,575.52 C192.16,562.74133 192.16,549.9627 192.16,537.18396 C179.38133,537.18396 166.60268,537.18396 153.824,537.18396 C141.04533,537.18396 128.26666,537.18396 115.48801,537.18396 C102.709335,537.18396 89.93067,537.18396 77.152,537.18396 z" stroke="Black" stroke-width="0" fill="#000000" fill-opacity="1" />
    <path d="M192.16,307.168 C179.38133,307.168 166.60268,307.168 153.824,307.168 C153.824,319.94666 153.824,332.72534 153.824,345.504 C166.60268,345.504 179.38133,345.504 192.16,345.504 C204.93867,345.504 217.71735,345.504 230.496,345.504 C230.496,358.28268 230.496,371.06134 230.496,383.84 C230.496,396.61865 230.496,409.39734 230.496,422.176 C243.27467,422.176 256.05334,422.176 268.832,422.176 C281.6107,422.176 294.3893,422.176 307.168,422.176 C307.168,434.95468 307.168,447.73334 307.168,460.51202 C307.168,473.29065 307.168,486.06934 307.168,498.84802 C307.168,511.62668 307.168,524.40533 307.168,537.18396 C294.3893,537.18396 281.6107,537.18396 268.832,537.18396 C256.05334,537.18396 243.27467,537.18396 230.496,537.18396 C230.496,549.9627 230.496,562.74133 230.496,575.52 C243.27467,575.52 256.05334,575.52 268.832,575.52 C281.6107,575.52 294.3893,575.52 307.168,575.52 C319.94666,575.52 332.72534,575.52 345.504,575.52 C345.504,562.74133 345.504,549.9627 345.504,537.18396 C345.504,524.40533 345.504,511.62668 345.504,498.84802 C345.504,486.06934 345.504,473.29065 345.504,460.51202 C345.504,447.73334 345.504,434.95468 345.504,422.176 C345.504,409.39734 345.504,396.61865 345.504,383.84 C332.72534,383.84 319.94666,383.84 307.168,383.84 C294.3893,383.84 281.6107,383.84 268.832,383.84 C268.832,371.06134 268.832,358.28268 268.832,345.504 C268.832,332.72534 268.832,319.94666 268.832,307.168 C256.05334,307.168 243.27467,307.168 230.496,307.168 C217.71735,307.168 204.93867,307.168 192.16,307.168 z" stroke="Black" stroke-width="0" fill="#000000" fill-opacity="1" />
    <path d="M115.48801,0.48 C102.709335,0.48 89.93067,0.48 77.152,0.48 C77.152,13.258667 77.152,26.037334 77.152,38.816 C89.93067,38.816 102.709335,38.816 115.48801,38.816 C128.26666,38.816 141.04533,38.816 153.824,38.816 C166.60268,38.816 179.38133,38.816 192.16,38.816 C192.16,26.037334 192.16,13.258667 192.16,0.48 C179.38133,0.48 166.60268,0.48 153.824,0.48 C141.04533,0.48 128.26666,0.48 115.48801,0.48 z" stroke="Black" stroke-width="0" fill="#000000" fill-opacity="1" />
    <path d="M422.176,268.832 C422.176,256.05334 422.176,243.27467 422.176,230.496 C409.39734,230.496 396.61865,230.496 383.84,230.496 C383.84,243.27467 383.84,256.05334 383.84,268.832 C383.84,281.6107 383.84,294.3893 383.84,307.168 C383.84,319.94666 383.84,332.72534 383.84,345.504 C383.84,358.28268 383.84,371.06134 383.84,383.84 C383.84,396.61865 383.84,409.39734 383.84,422.176 C383.84,434.95468 383.84,447.73334 383.84,460.51202 C383.84,473.29065 383.84,486.06934 383.84,498.84802 C396.61865,498.84802 409.39734,498.84802 422.176,498.84802 C422.176,486.06934 422.176,473.29065 422.176,460.51202 C422.176,447.73334 422.176,434.95468 422.176,422.176 C422.176,409.39734 422.176,396.61865 422.176,383.84 C422.176,371.06134 422.176,358.28268 422.176,345.504 C434.95468,345.504 447.73334,345.504 460.51202,345.504 C473.29065,345.504 486.06934,345.504 498.84802,345.504 C498.84802,332.72534 498.84802,319.94666 498.84802,307.168 C486.06934,307.168 473.29065,307.168 460.51202,307.168 C447.73334,307.168 434.95468,307.168 422.176,307.168 C422.176,294.3893 422.176,281.6107 422.176,268.832 z" stroke="Black" stroke-width="0" fill="#000000" fill-opacity="1" />
    <path d="M115.48801,345.504 C115.48801,332.72534 115.48801,319.94666 115.48801,307.168 C102.709335,307.168 89.93067,307.168 77.152,307.168 C77.152,319.94666 77.152,332.72534 77.152,345.504 C77.152,358.28268 77.152,371.06134 77.152,383.84 C77.152,396.61865 77.152,409.39734 77.152,422.176 C77.152,434.95468 77.152,447.73334 77.152,460.51202 C64.37334,460.51202 51.59467,460.51202 38.816,460.51202 C38.816,447.73334 38.816,434.95468 38.816,422.176 C38.816,409.39734 38.816,396.61865 38.816,383.84 C26.037334,383.84 13.258667,383.84 0.48,383.84 C0.48,396.61865 0.48,409.39734 0.48,422.176 C0.48,434.95468 0.48,447.73334 0.48,460.51202 C0.48,473.29065 0.48,486.06934 0.48,498.84802 C13.258667,498.84802 26.037334,498.84802 38.816,498.84802 C51.59467,498.84802 64.37334,498.84802 77.152,498.84802 C89.93067,498.84802 102.709335,498.84802 115.48801,498.84802 C128.26666,498.84802 141.04533,498.84802 153.824,498.84802 C166.60268,498.84802 179.38133,498.84802 192.16,498.84802 C204.93867,498.84802 217.71735,498.84802 230.496,498.84802 C243.27467,498.84802 256.05334,498.84802 268.832,498.84802 C268.832,486.06934 268.832,473.29065 268.832,460.51202 C256.05334,460.51202 243.27467,460.51202 230.496,460.51202 C217.71735,460.51202 204.93867,460.51202 192.16,460.51202 C192.16,447.73334 192.16,434.95468 192.16,422.176 C192.16,409.39734 192.16,396.61865 192.16,383.84 C179.38133,383.84 166.60268,383.84 153.824,383.84 C141.04533,383.84 128.26666,383.84 115.48801,383.84 C115.48801,371.06134 115.48801,358.28268 115.48801,345.504 z M153.824,460.51202 C141.04533,460.51202 128.26666,460.51202 115.48801,460.51202 C115.48801,447.73334 115.48801,434.95468 115.48801,422.176 C128.26666,422.176 141.04533,422.176 153.824,422.176 C153.824,434.95468 153.824,447.73334 153.824,460.51202 z" stroke="Black" stroke-width="0" fill="#000000" fill-opacity="1" />
    <path d="M498.84802,422.176 C498.84802,409.39734 498.84802,396.61865 498.84802,383.84 C486.06934,383.84 473.29065,383.84 460.51202,383.84 C460.51202,396.61865 460.51202,409.39734 460.51202,422.176 C460.51202,434.95468 460.51202,447.73334 460.51202,460.51202 C460.51202,473.29065 460.51202,486.06934 460.51202,498.84802 C460.51202,511.62668 460.51202,524.40533 460.51202,537.18396 C447.73334,537.18396 434.95468,537.18396 422.176,537.18396 C409.39734,537.18396 396.61865,537.18396 383.84,537.18396 C383.84,549.9627 383.84,562.74133 383.84,575.52 C396.61865,575.52 409.39734,575.52 422.176,575.52 C434.95468,575.52 447.73334,575.52 460.51202,575.52 C473.29065,575.52 486.06934,575.52 498.84802,575.52 C511.62668,575.52 524.40533,575.52 537.18396,575.52 C549.9627,575.52 562.74133,575.52 575.52,575.52 C575.52,562.74133 575.52,549.9627 575.52,537.18396 C575.52,524.40533 575.52,511.62668 575.52,498.84802 C575.52,486.06934 575.52,473.29065 575.52,460.51202 C562.74133,460.51202 549.9627,460.51202 537.18396,460.51202 C537.18396,473.29065 537.18396,486.06934 537.18396,498.84802 C537.18396,511.62668 537.18396,524.40533 537.18396,537.18396 C524.40533,537.18396 511.62668,537.18396 498.84802,537.18396 C498.84802,524.40533 498.84802,511.62668 498.84802,498.84802 C498.84802,486.06934 498.84802,473.29065 498.84802,460.51202 C498.84802,447.73334 498.84802,434.95468 498.84802,422.176 z" stroke="Black" stroke-width="0" fill="#000000" fill-opacity="1" />
    <path d="M498.84802,115.48801 C498.84802,102.709335 498.84802,89.93067 498.84802,77.152 C486.06934,77.152 473.29065,77.152 460.51202,77.152 C447.73334,77.152 434.95468,77.152 422.176,77.152 C409.39734,77.152 396.61865,77.152 383.84,77.152 C383.84,89.93067 383.84,102.709335 383.84,115.48801 C383.84,128.26666 383.84,141.04533 383.84,153.824 C383.84,166.60268 383.84,179.38133 383.84,192.16 C396.61865,192.16 409.39734,192.16 422.176,192.16 C434.95468,192.16 447.73334,192.16 460.51202,192.16 C460.51202,204.93867 460.51202,217.71735 460.51202,230.496 C460.51202,243.27467 460.51202,256.05334 460.51202,268.832 C473.29065,268.832 486.06934,268.832 498.84802,268.832 C511.62668,268.832 524.40533,268.832 537.18396,268.832 C549.9627,268.832 562.74133,268.832 575.52,268.832 C575.52,256.05334 575.52,243.27467 575.52,230.496 C575.52,217.71735 575.52,204.93867 575.52,192.16 C575.52,179.38133 575.52,166.60268 575.52,153.824 C562.74133,153.824 549.9627,153.824 537.18396,153.824 C537.18396,166.60268 537.18396,179.38133 537.18396,192.16 C537.18396,204.93867 537.18396,217.71735 537.18396,230.496 C524.40533,230.496 511.62668,230.496 498.84802,230.496 C498.84802,217.71735 498.84802,204.93867 498.84802,192.16 C498.84802,179.38133 498.84802,166.60268 498.84802,153.824 C498.84802,141.04533 498.84802,128.26666 498.84802,115.48801 z M422.176,153.824 C422.176,141.04533 422.176,128.26666 422.176,115.48801 C434.95468,115.48801 447.73334,115.48801 460.51202,115.48801 C460.51202,128.26666 460.51202,141.04533 460.51202,153.824 C447.73334,153.824 434.95468,153.824 422.176,153.824 z" stroke="Black" stroke-width="0" fill="#000000" fill-opacity="1" />
    <path d="M38.816,38.816 C38.816,26.037334 38.816,13.258667 38.816,0.48 C26.037334,0.48 13.258667,0.48 0.48,0.48 C0.48,13.258667 0.48,26.037334 0.48,38.816 C0.48,51.59467 0.48,64.37334 0.48,77.152 C0.48,89.93067 0.48,102.709335 0.48,115.48801 C0.48,128.26666 0.48,141.04533 0.48,153.824 C0.48,166.60268 0.48,179.38133 0.48,192.16 C13.258667,192.16 26.037334,192.16 38.816,192.16 C51.59467,192.16 64.37334,192.16 77.152,192.16 C77.152,204.93867 77.152,217.71735 77.152,230.496 C64.37334,230.496 51.59467,230.496 38.816,230.496 C26.037334,230.496 13.258667,230.496 0.48,230.496 C0.48,243.27467 0.48,256.05334 0.48,268.832 C0.48,281.6107 0.48,294.3893 0.48,307.168 C0.48,319.94666 0.48,332.72534 0.48,345.504 C13.258667,345.504 26.037334,345.504 38.816,345.504 C38.816,332.72534 38.816,319.94666 38.816,307.168 C38.816,294.3893 38.816,281.6107 38.816,268.832 C51.59467,268.832 64.37334,268.832 77.152,268.832 C89.93067,268.832 102.709335,268.832 115.48801,268.832 C115.48801,256.05334 115.48801,243.27467 115.48801,230.496 C115.48801,217.71735 115.48801,204.93867 115.48801,192.16 C115.48801,179.38133 115.48801,166.60268 115.48801,153.824 C115.48801,141.04533 115.48801,128.26666 115.48801,115.48801 C128.26666,115.48801 141.04533,115.48801 153.824,115.48801 C166.60268,115.48801 179.38133,115.48801 192.16,115.48801 C204.93867,115.48801 217.71735,115.48801 230.496,115.48801 C243.27467,115.48801 256.05334,115.48801 268.832,115.48801 C268.832,102.709335 268.832,89.93067 268.832,77.152 C268.832,64.37334 268.832,51.59467 268.832,38.816 C268.832,26.037334 268.832,13.258667 268.832,0.48 C256.05334,0.48 243.27467,0.48 230.496,0.48 C230.496,13.258667 230.496,26.037334 230.496,38.816 C230.496,51.59467 230.496,64.37334 230.496,77.152 C217.71735,77.152 204.93867,77.152 192.16,77.152 C179.38133,77.152 166.60268,77.152 153.824,77.152 C141.04533,77.152 128.26666,77.152 115.48801,77.152 C102.709335,77.152 89.93067,77.152 77.152,77.152 C77.152,89.93067 77.152,102.709335 77.152,115.48801 C77.152,128.26666 77.152,141.04533 77.152,153.824 C64.37334,153.824 51.59467,153.824 38.816,153.824 C38.816,141.04533 38.816,128.26666 38.816,115.48801 C38.816,102.709335 38.816,89.93067 38.816,77.152 C38.816,64.37334 38.816,51.59467 38.816,38.816 z" stroke="Black" stroke-width="0" fill="#000000" fill-opacity="1" />
    <path d="M575.52,345.504 C575.52,332.72534 575.52,319.94666 575.52,307.168 C562.74133,307.168 549.9627,307.168 537.18396,307.168 C537.18396,319.94666 537.18396,332.72534 537.18396,345.504 C537.18396,358.28268 537.18396,371.06134 537.18396,383.84 C537.18396,396.61865 537.18396,409.39734 537.18396,422.176 C549.9627,422.176 562.74133,422.176 575.52,422.176 C575.52,409.39734 575.52,396.61865 575.52,383.84 C575.52,371.06134 575.52,358.28268 575.52,345.504 z" stroke="Black" stroke-width="0" fill="#000000" fill-opacity="1" />
    <path d="M575.52,38.816 C575.52,26.037334 575.52,13.258667 575.52,0.48 C562.74133,0.48 549.9627,0.48 537.18396,0.48 C524.40533,0.48 511.62668,0.48 498.84802,0.48 C486.06934,0.48 473.29065,0.48 460.51202,0.48 C447.73334,0.48 434.95468,0.48 422.176,0.48 C409.39734,0.48 396.61865,0.48 383.84,0.48 C371.06134,0.48 358.28268,0.48 345.504,0.48 C332.72534,0.48 319.94666,0.48 307.168,0.48 C307.168,13.258667 307.168,26.037334 307.168,38.816 C319.94666,38.816 332.72534,38.816 345.504,38.816 C358.28268,38.816 371.06134,38.816 383.84,38.816 C396.61865,38.816 409.39734,38.816 422.176,38.816 C434.95468,38.816 447.73334,38.816 460.51202,38.816 C473.29065,38.816 486.06934,38.816 498.84802,38.816 C511.62668,38.816 524.40533,38.816 537.18396,38.816 C537.18396,51.59467 537.18396,64.37334 537.18396,77.152 C537.18396,89.93067 537.18396,102.709335 537.18396,115.48801 C549.9627,115.48801 562.74133,115.48801 575.52,115.48801 C575.52,102.709335 575.52,89.93067 575.52,77.152 C575.52,64.37334 575.52,51.59467 575.52,38.816 z" stroke="Black" stroke-width="0" fill="#000000" fill-opacity="1" />
    <path d="M345.504,115.48801 C345.504,102.709335 345.504,89.93067 345.504,77.152 C332.72534,77.152 319.94666,77.152 307.168,77.152 C307.168,89.93067 307.168,102.709335 307.168,115.48801 C307.168,128.26666 307.168,141.04533 307.168,153.824 C294.3893,153.824 281.6107,153.824 268.832,153.824 C256.05334,153.824 243.27467,153.824 230.496,153.824 C230.496,166.60268 230.496,179.38133 230.496,192.16 C243.27467,192.16 256.05334,192.16 268.832,192.16 C281.6107,192.16 294.3893,192.16 307.168,192.16 C307.168,204.93867 307.168,217.71735 307.168,230.496 C294.3893,230.496 281.6107,230.496 268.832,230.496 C256.05334,230.496 243.27467,230.496 230.496,230.496 C217.71735,230.496 204.93867,230.496 192.16,230.496 C192.16,217.71735 192.16,204.93867 192.16,192.16 C192.16,179.38133 192.16,166.60268 192.16,153.824 C179.38133,153.824 166.60268,153.824 153.824,153.824 C153.824,166.60268 153.824,179.38133 153.824,192.16 C153.824,204.93867 153.824,217.71735 153.824,230.496 C153.824,243.27467 153.824,256.05334 153.824,268.832 C166.60268,268.832 179.38133,268.832 192.16,268.832 C204.93867,268.832 217.71735,268.832 230.496,268.832 C243.27467,268.832 256.05334,268.832 268.832,268.832 C281.6107,268.832 294.3893,268.832 307.168,268.832 C307.168,281.6107 307.168,294.3893 307.168,307.168 C307.168,319.94666 307.168,332.72534 307.168,345.504 C319.94666,345.504 332.72534,345.504 345.504,345.504 C345.504,332.72534 345.504,319.94666 345.504,307.168 C345.504,294.3893 345.504,281.6107 345.504,268.832 C345.504,256.05334 345.504,243.27467 345.504,230.496 C345.504,217.71735 345.504,204.93867 345.504,192.16 C345.504,179.38133 345.504,166.60268 345.504,153.824 C345.504,141.04533 345.504,128.26666 345.504,115.48801 z" stroke="Black" stroke-width="0" fill="#000000" fill-opacity="1" />
  </g>
</svg>