<?xml version="1.0" encoding="utf-8" standalone="no"?>
<!DOCTYPE svg PUBLIC "-//W3C//DTD SVG 1.1//EN" "http://www.w3.org/Graphics/SVG/1.1/DTD/svg11.dtd">
<svg version="1.1" width="576pt" height="576pt" viewBox="0 0 576 576" xmlns="http://www.w3.org/2000/svg">
  <defs />
  <g id="Black">
    <path d="M38.816,0.48 C26.037334,0.48 13.258667,0.48 0.48,0.48 C0.48,13.258667 0.48,26.037334 0.48,38.816 C0.48,51.59467 0.48,64.37334 0.48,77.152 C0.48,89.93067 0.48,102.709335 0.48,115.48801 C0.48,128.26666 0.48,141.04533 0.48,153.824 C0.48,166.60268 0.48,179.38133 0.48,192.16 C0.48,204.93867 0.48,217.71735 0.48,230.496 C0.48,243.27467 0.48,256.05334 0.48,268.832 C0.48,281.6107 0.48,294.3893 0.48,307.168 C0.48,319.94666 0.48,332.72534 0.48,345.504 C0.48,358.28268 0.48,371.06134 0.48,383.84 C0.48,396.61865 0.48,409.39734 0.48,422.176 C0.48,434.95468 0.48,447.73334 0.48,460.51202 C0.48,473.29065 0.48,486.06934 0.48,498.84802 C0.48,511.62668 0.48,524.40533 0.48,537.18396 C0.48,549.9627 0.48,562.74133 0.48,575.52 C13.258667,575.52 26.037334,575.52 38.816,575.52 C51.59467,575.52 64.37334,575.52 77.152,575.52 C89.93067,575.52 102.709335,575.52 115.48801,575.52 C128.26666,575.52 141.04533,575.52 153.824,575.52 C166.60268,575.52 179.38133,575.52 192.16,575.52 C204.93867,575.52 217.71735,575.52 230.496,575.52 C243.27467,575.52 256.05334,575.52 268.832,575.52 C281.6107,575.52 294.3893,575.52 307.168,575.52 C319.94666,575.52 332.72534,575.52 345.504,575.52 C358.28268,575.52 371.06134,575.52 383.84,575.52 C396.61865,575.52 409.39734,575.52 422.176,575.52 C434.95468,575.52 447.73334,575.52 460.51202,575.52 C473.29065,575.52 486.06934,575.52 498.84802,575.52 C511.62668,575.52 524.40533,575.52 537.18396,575.52 C549.9627,575.52 562.74133,575.52 575.52,575.52 C575.52,562.74133 575.52,549.9627 575.52,537.18396 C575.52,524.40533 575.52,511.62668 575.52,498.84802 C575.52,486.06934 575.52,473.29065 575.52,460.51202 C575.52,447.73334 575.52,434.95468 575.52,422.176 C575.52,409.39734 575.52,396.61865 575.52,383.84 C575.52,371.06134 575.52,358.28268 575.52,345.504 C575.52,332.72534 575.52,319.94666 575.52,307.168 C575.52,294.3893 575.52,281.6107 575.52,268.832 C575.52,256.05334 575.52,243.27467 575.52,230.496 C575.52,217.71735 575.52,204.93867 575.52,192.16 C575.52,179.38133 575.52,166.60268 575.52,153.824 C575.52,141.04533 575.52,128.26666 575.52,115.48801 C575.52,102.709335 575.52,89.93067 575.52,77.152 C575.52,64.37334 575.52,51.59467 575.52,38.816 C575.52,26.037334 575.52,13.258667 575.52,0.48 C562.74133,0.48 549.9627,0.48 537.18396,0.48 C524.40533,0.48 511.62668,0.48 498.84802,0.48 C486.06934,0.48 473.29065,0.48 460.51202,0.48 C447.73334,0.48 434.95468,0.48 422.176,0.48 C409.39734,0.48 396.61865,0.48 383.84,0.48 C371.06134,0.48 358.28268,0.48 345.504,0.48 C332.72534,0.48 319.94666,0.48 307.168,0.48 C294.3893,0.48 281.6107,0.48 268.832,0.48 C256.05334,0.48 243.27467,0.48 230.496,0.48 C217.71735,0.48 204.93867,0.48 192.16,0.48 C179.38133,0.48 166.60268,0.48 153.824,0.48 C141.04533,0.48 128.26666,0.48 115.48801,0.48 C102.709335,0.48 89.93067,0.48 77.152,0.48 C64.37334,0.48 51.59467,0.48 38.816,0.48 z M268.832,268.832 C281.6107,268.832 294.3893,268.832 307.168,268.832 C307.168,281.6107 307.168,294.3893 307.168,307.168 C294.3893,307.168 281.6107,307.168 268.832,307.168 C268.832,294.3893 268.832,281.6107 268.832,268.832 z M230.496,268.832 C230.496,281.6107 230.496,294.3893 230.496,307.168 C217.71735,307.168 204.93867,307.168 192.16,307.168 C192.16,294.3893 192.16,281.6107 192.16,268.832 C204.93867,268.832 217.71735,268.832 230.496,268.832 z M230.496,345.504 C230.496,358.28268 230.496,371.06134 230.496,383.84 C217.71735,383.84 204.93867,383.84 192.16,383.84 C192.16,371.06134 192.16,358.28268 192.16,345.504 C204.93867,345.504 217.71735,345.504 230.496,345.504 z M268.832,383.84 C268.832,371.06134 268.832,358.28268 268.832,345.504 C281.6107,345.504 294.3893,345.504 307.168,345.504 C307.168,358.28268 307.168,371.06134 307.168,383.84 C294.3893,383.84 281.6107,383.84 268.832,383.84 z M383.84,345.504 C383.84,358.28268 383.84,371.06134 383.84,383.84 C371.06134,383.84 358.28268,383.84 345.504,383.84 C345.504,371.06134 345.504,358.28268 345.504,345.504 C358.28268,345.504 371.06134,345.504 383.84,345.504 z M383.84,268.832 C383.84,281.6107 383.84,294.3893 383.84,307.168 C371.06134,307.168 358.28268,307.168 345.504,307.168 C345.504,294.3893 345.504,281.6107 345.504,268.832 C358.28268,268.832 371.06134,268.832 383.84,268.832 z M383.84,192.16 C383.84,204.93867 383.84,217.71735 383.84,230.496 C371.06134,230.496 358.28268,230.496 345.504,230.496 C345.504,217.71735 345.504,204.93867 345.504,192.16 C358.28268,192.16 371.06134,192.16 383.84,192.16 z M307.168,192.16 C307.168,204.93867 307.168,217.71735 307.168,230.496 C294.3893,230.496 281.6107,230.496 268.832,230.496 C268.832,217.71735 268.832,204.93867 268.832,192.16 C281.6107,192.16 294.3893,192.16 307.168,192.16 z M192.16,192.16 C204.93867,192.16 217.71735,192.16 230.496,192.16 C230.496,204.93867 230.496,217.71735 230.496,230.496 C217.71735,230.496 204.93867,230.496 192.16,230.496 C192.16,217.71735 192.16,204.93867 192.16,192.16 z M153.824,192.16 C153.824,204.93867 153.824,217.71735 153.824,230.496 C141.04533,230.496 128.26666,230.496 115.48801,230.496 C115.48801,217.71735 115.48801,204.93867 115.48801,192.16 C128.26666,192.16 141.04533,192.16 153.824,192.16 z M115.48801,307.168 C115.48801,294.3893 115.48801,281.6107 115.48801,268.832 C128.26666,268.832 141.04533,268.832 153.824,268.832 C153.824,281.6107 153.824,294.3893 153.824,307.168 C141.04533,307.168 128.26666,307.168 115.48801,307.168 z M153.824,345.504 C153.824,358.28268 153.824,371.06134 153.824,383.84 C141.04533,383.84 128.26666,383.84 115.48801,383.84 C115.48801,371.06134 115.48801,358.28268 115.48801,345.504 C128.26666,345.504 141.04533,345.504 153.824,345.504 z M153.824,422.176 C153.824,434.95468 153.824,447.73334 153.824,460.51202 C141.04533,460.51202 128.26666,460.51202 115.48801,460.51202 C115.48801,447.73334 115.48801,434.95468 115.48801,422.176 C128.26666,422.176 141.04533,422.176 153.824,422.176 z M230.496,422.176 C230.496,434.95468 230.496,447.73334 230.496,460.51202 C217.71735,460.51202 204.93867,460.51202 192.16,460.51202 C192.16,447.73334 192.16,434.95468 192.16,422.176 C204.93867,422.176 217.71735,422.176 230.496,422.176 z M307.168,422.176 C307.168,434.95468 307.168,447.73334 307.168,460.51202 C294.3893,460.51202 281.6107,460.51202 268.832,460.51202 C268.832,447.73334 268.832,434.95468 268.832,422.176 C281.6107,422.176 294.3893,422.176 307.168,422.176 z M383.84,422.176 C383.84,434.95468 383.84,447.73334 383.84,460.51202 C371.06134,460.51202 358.28268,460.51202 345.504,460.51202 C345.504,447.73334 345.504,434.95468 345.504,422.176 C358.28268,422.176 371.06134,422.176 383.84,422.176 z M460.51202,422.176 C460.51202,434.95468 460.51202,447.73334 460.51202,460.51202 C447.73334,460.51202 434.95468,460.51202 422.176,460.51202 C422.176,447.73334 422.176,434.95468 422.176,422.176 C434.95468,422.176 447.73334,422.176 460.51202,422.176 z M460.51202,345.504 C460.51202,358.28268 460.51202,371.06134 460.51202,383.84 C447.73334,383.84 434.95468,383.84 422.176,383.84 C422.176,371.06134 422.176,358.28268 422.176,345.504 C434.95468,345.504 447.73334,345.504 460.51202,345.504 z M460.51202,268.832 C460.51202,281.6107 460.51202,294.3893 460.51202,307.168 C447.73334,307.168 434.95468,307.168 422.176,307.168 C422.176,294.3893 422.176,281.6107 422.176,268.832 C434.95468,268.832 447.73334,268.832 460.51202,268.832 z M422.176,230.496 C422.176,217.71735 422.176,204.93867 422.176,192.16 C434.95468,192.16 447.73334,192.16 460.51202,192.16 C460.51202,204.93867 460.51202,217.71735 460.51202,230.496 C447.73334,230.496 434.95468,230.496 422.176,230.496 z M422.176,115.48801 C434.95468,115.48801 447.73334,115.48801 460.51202,115.48801 C460.51202,128.26666 460.51202,141.04533 460.51202,153.824 C447.73334,153.824 434.95468,153.824 422.176,153.824 C422.176,141.04533 422.176,128.26666 422.176,115.48801 z M383.84,115.48801 C383.84,128.26666 383.84,141.04533 383.84,153.824 C371.06134,153.824 358.28268,153.824 345.504,153.824 C345.504,141.04533 345.504,128.26666 345.504,115.48801 C358.28268,115.48801 371.06134,115.48801 383.84,115.48801 z M268.832,153.824 C268.832,141.04533 268.832,128.26666 268.832,115.48801 C281.6107,115.48801 294.3893,115.48801 307.168,115.48801 C307.168,128.26666 307.168,141.04533 307.168,153.824 C294.3893,153.824 281.6107,153.824 268.832,153.824 z M230.496,115.48801 C230.496,128.26666 230.496,141.04533 230.496,153.824 C217.71735,153.824 204.93867,153.824 192.16,153.824 C192.16,141.04533 192.16,128.26666 192.16,115.48801 C204.93867,115.48801 217.71735,115.48801 230.496,115.48801 z M153.824,115.48801 C153.824,128.26666 153.824,141.04533 153.824,153.824 C141.04533,153.824 128.26666,153.824 115.48801,153.824 C115.48801,141.04533 115.48801,128.26666 115.48801,115.48801 C128.26666,115.48801 141.04533,115.48801 153.824,115.48801 z M77.152,115.48801 C77.152,128.26666 77.152,141.04533 77.152,153.824 C64.37334,153.824 51.59467,153.824 38.816,153.824 C38.816,141.04533 38.816,128.26666 38.816,115.48801 C51.59467,115.48801 64.37334,115.48801 77.152,115.48801 z M77.152,192.16 C77.152,204.93867 77.152,217.71735 77.152,230.496 C64.37334,230.496 51.59467,230.496 38.816,230.496 C38.816,217.71735 38.816,204.93867 38.816,192.16 C51.59467,192.16 64.37334,192.16 77.152,192.16 z M77.152,268.832 C77.152,281.6107 77.152,294.3893 77.152,307.168 C64.37334,307.168 51.59467,307.168 38.816,307.168 C38.816,294.3893 38.816,281.6107 38.816,268.832 C51.59467,268.832 64.37334,268.832 77.152,268.832 z M38.816,383.84 C38.816,371.06134 38.816,358.28268 38.816,345.504 C51.59467,345.504 64.37334,345.504 77.152,345.504 C77.152,358.28268 77.152,371.06134 77.152,383.84 C64.37334,383.84 51.59467,383.84 38.816,383.84 z M38.816,422.176 C51.59467,422.176 64.37334,422.176 77.152,422.176 C77.152,434.95468 77.152,447.73334 77.152,460.51202 C64.37334,460.51202 51.59467,460.51202 38.816,460.51202 C38.816,447.73334 38.816,434.95468 38.816,422.176 z M77.152,498.84802 C77.152,511.62668 77.152,524.40533 77.152,537.18396 C64.37334,537.18396 51.59467,537.18396 38.816,537.18396 C38.816,524.40533 38.816,511.62668 38.816,498.84802 C51.59467,498.84802 64.37334,498.84802 77.152,498.84802 z M153.824,498.84802 C153.824,511.62668 153.824,524.40533 153.824,537.18396 C141.04533,537.18396 128.26666,537.18396 115.48801,537.18396 C115.48801,524.40533 115.48801,511.62668 115.48801,498.84802 C128.26666,498.84802 141.04533,498.84802 153.824,498.84802 z M192.16,537.18396 C192.16,524.40533 192.16,511.62668 192.16,498.84802 C204.93867,498.84802 217.71735,498.84802 230.496,498.84802 C230.496,511.62668 230.496,524.40533 230.496,537.18396 C217.71735,537.18396 204.93867,537.18396 192.16,537.18396 z M268.832,498.84802 C281.6107,498.84802 294.3893,498.84802 307.168,498.84802 C307.168,511.62668 307.168,524.40533 307.168,537.18396 C294.3893,537.18396 281.6107,537.18396 268.832,537.18396 C268.832,524.40533 268.832,511.62668 268.832,498.84802 z M345.504,537.18396 C345.504,524.40533 345.504,511.62668 345.504,498.84802 C358.28268,498.84802 371.06134,498.84802 383.84,498.84802 C383.84,511.62668 383.84,524.40533 383.84,537.18396 C371.06134,537.18396 358.28268,537.18396 345.504,537.18396 z M422.176,537.18396 C422.176,524.40533 422.176,511.62668 422.176,498.84802 C434.95468,498.84802 447.73334,498.84802 460.51202,498.84802 C460.51202,511.62668 460.51202,524.40533 460.51202,537.18396 C447.73334,537.18396 434.95468,537.18396 422.176,537.18396 z M537.18396,498.84802 C537.18396,511.62668 537.18396,524.40533 537.18396,537.18396 C524.40533,537.18396 511.62668,537.18396 498.84802,537.18396 C498.84802,524.40533 498.84802,511.62668 498.84802,498.84802 C511.62668,498.84802 524.40533,498.84802 537.18396,498.84802 z M498.84802,422.176 C511.62668,422.176 524.40533,422.176 537.18396,422.176 C537.18396,434.95468 537.18396,447.73334 537.18396,460.51202 C524.40533,460.51202 511.62668,460.51202 498.84802,460.51202 C498.84802,447.73334 498.84802,434.95468 498.84802,422.176 z M498.84802,345.504 C511.62668,345.504 524.40533,345.504 537.18396,345.504 C537.18396,358.28268 537.18396,371.06134 537.18396,383.84 C524.40533,383.84 511.62668,383.84 498.84802,383.84 C498.84802,371.06134 498.84802,358.28268 498.84802,345.504 z M537.18396,268.832 C537.18396,281.6107 537.18396,294.3893 537.18396,307.168 C524.40533,307.168 511.62668,307.168 498.84802,307.168 C498.84802,294.3893 498.84802,281.6107 498.84802,268.832 C511.62668,268.832 524.40533,268.832 537.18396,268.832 z M537.18396,192.16 C537.18396,204.93867 537.18396,217.71735 537.18396,230.496 C524.40533,230.496 511.62668,230.496 498.84802,230.496 C498.84802,217.71735 498.84802,204.93867 498.84802,192.16 C511.62668,192.16 524.40533,192.16 537.18396,192.16 z M537.18396,115.48801 C537.18396,128.26666 537.18396,141.04533 537.18396,153.824 C524.40533,153.824 511.62668,153.824 498.84802,153.824 C498.84802,141.04533 498.84802,128.26666 498.84802,115.48801 C511.62668,115.48801 524.40533,115.48801 537.18396,115.48801 z M498.84802,38.816 C511.62668,38.816 524.40533,38.816 537.18396,38.816 C537.18396,51.59467 537.18396,64.37334 537.18396,77.152 C524.40533,77.152 511.62668,77.152 498.84802,77.152 C498.84802,64.37334 498.84802,51.59467 498.84802,38.816 z M460.51202,38.816 C460.51202,51.59467 460.51202,64.37334 460.51202,77.152 C447.73334,77.152 434.95468,77.152 422.176,77.152 C422.176,64.37334 422.176,51.59467 422.176,38.816 C434.95468,38.816 447.73334,38.816 460.51202,38.816 z M383.84,38.816 C383.84,51.59467 383.84,64.37334 383.84,77.152 C371.06134,77.152 358.28268,77.152 345.504,77.152 C345.504,64.37334 345.504,51.59467 345.504,38.816 C358.28268,38.816 371.06134,38.816 383.84,38.816 z M307.168,38.816 C307.168,51.59467 307.168,64.37334 307.168,77.152 C294.3893,77.152 281.6107,77.152 268.832,77.152 C268.832,64.37334 268.832,51.59467 268.832,38.816 C281.6107,38.816 294.3893,38.816 307.168,38.816 z M230.496,38.816 C230.496,51.59467 230.496,64.37334 230.496,77.152 C217.71735,77.152 204.93867,77.152 192.16,77.152 C192.16,64.37334 192.16,51.59467 192.16,38.816 C204.93867,38.816 217.71735,38.816 230.496,38.816 z M153.824,38.816 C153.824,51.59467 153.824,64.37334 153.824,77.152 C141.04533,77.152 128.26666,77.152 115.48801,77.152 C115.48801,64.37334 115.48801,51.59467 115.48801,38.816 C128.26666,38.816 141.04533,38.816 153.824,38.816 z M38.816,77.152 C38.816,64.37334 38.816,51.59467 38.816,38.816 C51.59467,38.816 64.37334,38.816 77.152,38.816 C77.152,51.59467 77.152,64.37334 77.152,77.152 C64.37334,77.152 51.59467,77.152 38.816,77.152 z" stroke="Black" stroke-width="0" fill="#000000" fill-opacity="1" />
  </g>
</svg>